<svg width="38" height="38" viewBox="0 0 38 38" fill="none" xmlns="http://www.w3.org/2000/svg">
<circle cx="19" cy="19" r="19" fill="#C8102E"/>
<path d="M19.091 25.18C17.951 25.18 16.991 24.988 16.211 24.604C15.431 24.22 14.729 23.602 14.105 22.75L16.283 21.184C16.631 21.796 17.039 22.234 17.507 22.498C17.975 22.762 18.509 22.894 19.109 22.894C19.721 22.894 20.231 22.738 20.639 22.426C21.047 22.114 21.251 21.67 21.251 21.094C21.251 20.602 21.095 20.206 20.783 19.906C20.471 19.606 19.973 19.456 19.289 19.456H17.561V17.152H19.253C19.601 17.152 19.895 17.104 20.135 17.008C20.387 16.912 20.585 16.786 20.729 16.63C20.885 16.462 20.999 16.27 21.071 16.054C21.143 15.838 21.179 15.616 21.179 15.388C21.179 15.196 21.131 15.01 21.035 14.83C20.951 14.65 20.825 14.488 20.657 14.344C20.489 14.2 20.279 14.086 20.027 14.002C19.775 13.906 19.481 13.858 19.145 13.858C18.425 13.858 17.873 13.99 17.489 14.254C17.105 14.506 16.775 14.914 16.499 15.478L14.321 14.398C14.801 13.474 15.443 12.79 16.247 12.346C17.051 11.902 18.011 11.68 19.127 11.68C19.775 11.68 20.369 11.77 20.909 11.95C21.461 12.118 21.935 12.364 22.331 12.688C22.739 13 23.051 13.378 23.267 13.822C23.495 14.266 23.609 14.752 23.609 15.28C23.609 15.928 23.477 16.504 23.213 17.008C22.949 17.512 22.571 17.926 22.079 18.25C22.607 18.538 23.015 18.922 23.303 19.402C23.603 19.882 23.753 20.47 23.753 21.166C23.753 21.73 23.645 22.258 23.429 22.75C23.225 23.23 22.919 23.65 22.511 24.01C22.115 24.37 21.629 24.658 21.053 24.874C20.477 25.078 19.823 25.18 19.091 25.18Z" fill="white"/>
</svg>
