<svg width="25" height="20" viewBox="0 0 25 20" fill="none" xmlns="http://www.w3.org/2000/svg">
<path d="M13.5 19.0004H6C3.238 19.0004 1 16.7624 1 14.0004V10.6664C1 5.00037 5 4.00037 7 4.00037H10C10.972 4.00037 12 4.50037 12 5.50037V6.00037C12 7.00037 11 7.50037 10 7.50037H8C8 7.50037 7 11.0004 5 11.0004" stroke="#C8102E" stroke-linecap="round" stroke-linejoin="round"/>
<path d="M11 13.0004H17.5C18.328 13.0004 19 13.6724 19 14.5004C19 15.3294 18.328 16.0004 17.5 16.0004H13.5" stroke="#C8102E" stroke-linecap="round" stroke-linejoin="round"/>
<path d="M11 16.0004H13.5C14.328 16.0004 15 16.6724 15 17.5004C15 18.3294 14.328 19.0004 13.5 19.0004H12" stroke="#C8102E" stroke-linecap="round" stroke-linejoin="round"/>
<path d="M24 5.00037H11.896" stroke="#C8102E" stroke-linecap="round" stroke-linejoin="round"/>
<path d="M6 4.078V2.5C6 1.672 6.672 1 7.5 1H22.5C23.328 1 24 1.672 24 2.5V11.5C24 12.329 23.328 13 22.5 13H7.5C6.672 13 6 12.329 6 11.5V10.688" stroke="#C8102E" stroke-linecap="round" stroke-linejoin="round"/>
<path d="M22 7.00037H19" stroke="#C8102E" stroke-linecap="round" stroke-linejoin="round"/>
</svg>
