<svg width="21" height="25" viewBox="0 0 21 25" fill="none" xmlns="http://www.w3.org/2000/svg">
<path d="M17.6367 11V17.5C17.6367 20.263 15.3987 22.5 12.6367 22.5H9.30174C7.59074 22.5 5.99674 21.623 5.07874 20.179C3.35774 17.469 1.21974 13 1.21974 13C0.882743 12.523 0.938743 11.873 1.35074 11.46C1.79374 11.018 2.50374 10.99 2.98074 11.398L5.63674 14.5V4.5C5.63674 3.672 6.30874 3 7.13674 3C7.96574 3 8.63674 3.672 8.63674 4.5V10.5" stroke="#C8102E" stroke-linecap="round" stroke-linejoin="round"/>
<path d="M8.63672 8.5V2.5C8.63672 1.672 9.30872 1 10.1367 1C10.9657 1 11.6367 1.672 11.6367 2.5V8.5" stroke="#C8102E" stroke-linecap="round" stroke-linejoin="round"/>
<path d="M11.6367 10.5V4.5C11.6367 3.672 12.3087 3 13.1367 3C13.9657 3 14.6367 3.672 14.6367 4.5V10.5" stroke="#C8102E" stroke-linecap="round" stroke-linejoin="round"/>
<path d="M14.6367 12V7.5C14.6367 6.672 15.3087 6 16.1367 6C16.9657 6 17.6367 6.672 17.6367 7.5V13.5" stroke="#C8102E" stroke-linecap="round" stroke-linejoin="round"/>
<line x1="2.69229" y1="23.1759" x2="19.2399" y2="2.79935" stroke="white" stroke-width="3"/>
<line x1="2.69219" y1="23.1759" x2="19.2398" y2="2.79938" stroke="#C8102E"/>
</svg>
