<svg width="30" height="30" viewBox="0 0 30 30" fill="none" xmlns="http://www.w3.org/2000/svg">
<circle cx="15" cy="15" r="15" fill="#C8102E"/>
<path d="M10.519 19.642C10.519 19.078 10.633 18.568 10.861 18.112C11.089 17.656 11.383 17.242 11.743 16.87C12.115 16.486 12.523 16.138 12.967 15.826C13.423 15.514 13.873 15.22 14.317 14.944C14.665 14.728 15.001 14.518 15.325 14.314C15.649 14.11 15.937 13.906 16.189 13.702C16.441 13.486 16.639 13.27 16.783 13.054C16.939 12.838 17.017 12.604 17.017 12.352C17.017 11.932 16.843 11.578 16.495 11.29C16.159 10.99 15.661 10.84 15.001 10.84C14.353 10.84 13.819 11.014 13.399 11.362C12.979 11.698 12.643 12.142 12.391 12.694L10.231 11.614C10.663 10.714 11.275 10 12.067 9.472C12.859 8.944 13.831 8.68 14.983 8.68C15.703 8.68 16.345 8.776 16.909 8.968C17.473 9.16 17.953 9.424 18.349 9.76C18.745 10.084 19.045 10.474 19.249 10.93C19.453 11.374 19.555 11.854 19.555 12.37C19.555 12.898 19.447 13.366 19.231 13.774C19.015 14.182 18.733 14.56 18.385 14.908C18.049 15.244 17.665 15.556 17.233 15.844C16.813 16.12 16.387 16.39 15.955 16.654C15.583 16.882 15.217 17.11 14.857 17.338C14.509 17.554 14.197 17.782 13.921 18.022C13.657 18.25 13.441 18.496 13.273 18.76C13.105 19.024 13.021 19.306 13.021 19.606H19.483V22H10.519V19.642Z" fill="white"/>
</svg>
