<svg width="41" height="29" viewBox="0 0 41 29" fill="none" xmlns="http://www.w3.org/2000/svg">
<g clip-path="url(#clip0)">
<path d="M26.1001 22.6C26.1001 22.6 27.7001 25 28.2001 26.8C28.8001 29.7 36.3001 27.7 38.0001 24.5C37.0001 22.6 36.4001 18.8 36.6001 17.4" stroke="#C8102E" stroke-miterlimit="10"/>
<path d="M22.2998 6.40002C21.5998 7.80002 20.5998 10.4 20.8998 11.4C21.1998 12.3 21.3998 12.5 21.3998 12.8C21.3998 13.1 20.9998 13.7 20.7998 14.3" stroke="#C8102E" stroke-miterlimit="10"/>
<path d="M20.1 6.8C21.9 6.2 23.7 6.5 24.3 6.8C24.2 6.1 25.1 5.3 25.1 5.3C25.1 5.3 25.5 7.4 26.1 7.4C26.7 7.4 28.1 6.6 28.3 6.4C27.3 7.2 26.9 8.1 26.9 8.1C26.9 8.1 30.5 11.9 30.8 12.2C30.8 12.9 30.8 14.6 30.8 14.6H32.2C32.2 14.6 32.8 13.1 33.1 12.6C33.3 12.2 33.8 11.5 35.6 11.8C37.4 12.1 36.2 14.7 35.9 15.2C35.6 15.7 35.1 16.2 35.1 16.2L35.8 17.6H36.9L37.3 19.3C37.3 19.3 38 18.2 38.2 17.8C38.5 17.3 39.6 14.4 39.6 13.6C39.6 12.8 40.4 10.5 39.3 7.5C38.2 4.5 38 4.8 38 4.8L39.5 4.2C39.5 4.2 37.7 3.7 36.1 3.5C35.8 2.6 35 1.5 34.5 0.999998C34.5 1.6 34.6 2.3 34.6 2.3C34.6 2.3 32.1 0.899998 31.4 0.799998C30.7 0.699998 28.1 0.299998 25.9 1.4C23.7 2.5 21.6 3 21.3 3C22.3 3.2 22.8 3.3 22.8 3.3L20 4.8L21.5 4.7L20.1 6.8Z" stroke="#C8102E" stroke-miterlimit="10" stroke-linecap="round" stroke-linejoin="round"/>
<path d="M11.9001 8.20001C11.4001 8.20001 11.0001 8.50001 10.8001 9.00001L8.6001 15.5C8.6001 15.5 9.6001 16 10.9001 16C12.2001 16 13.1001 15.5 13.1001 15.5L14.3001 11.9C14.4001 11.7 14.6001 11.6 14.8001 11.6H17.8001L18.9001 8.20001H11.9001Z" stroke="#C8102E" stroke-miterlimit="10"/>
<path d="M10.7002 9.59998L9.7002 12.4H11.0002L11.9002 9.59998H10.7002Z" fill="#C8102E"/>
<path d="M8.7 15L9.2 13.7C8.9 13.7 8.4 13.7 7.9 13.7C7.2 13.7 6.7 14.3 6.4 14.6C6.2 14.9 4.5 16.4 3.8 16.8C3.2 17.3 2.6 17.4 2.6 17.4H1.6C1 17.8 0.5 19.3 0.5 21C0.5 22.8 1 24.4 1.7 24.7C2.1 24.7 2.5 24.7 3.3 24.5C4.7 24.2 5.3 24.3 5.8 24.3C6.3 24.3 8.3 24.5 8.7 24.5C9.4 24.5 10.9 24.4 11.6 24.4C12.3 24.4 12.7 24 12.8 23.9C12.9 23.8 13.9 23 14.3 22.6C14.6 22.3 14.5 21.4 14.2 21.2L13.4 21.8C13.4 21.8 13.4 21.8 13.3 21.8H13.2V21.7L14.6 20.6C15.3 20.1 15.1 18.8 14.4 19.1C13.8 19.4 13.3 19.7 13.3 19.7H13.2V19.6L14.7 18.7C14.9 18.6 15 18.3 15 17.9C15 17.2 14.5 17 14.1 17.2C13.8 17.3 13.1 17.7 13.1 17.7C13.1 17.7 13 17.7 13 17.6V17.5L14.6 16.7C15.3 16.3 15.2 15.2 14.8 15C14.4 14.8 13.4 14.6 13.4 14.6" stroke="#C8102E" stroke-miterlimit="10"/>
<path d="M30.4998 13.7L26.7998 15.6" stroke="#C8102E" stroke-miterlimit="10"/>
<path d="M29.2998 20.5C29.2998 20.7 34.9998 16.6 34.9998 16.6" stroke="#C8102E" stroke-miterlimit="10"/>
<path d="M20.1 14.1C22.7 14.4 26.7 15.1 26.7 15.1L29.5 20.5C29.5 20.5 25 23.9 23.7 24.6C19.5 23.1 18.3 17.5 20.1 14.1Z" stroke="#C8102E" stroke-miterlimit="10"/>
</g>
<defs>
<clipPath id="clip0">
<rect width="40.4" height="28.8" fill="white"/>
</clipPath>
</defs>
</svg>
