<svg width="25" height="25" viewBox="0 0 25 25" fill="none" xmlns="http://www.w3.org/2000/svg">
<path fill-rule="evenodd" clip-rule="evenodd" d="M2 21H23V3H2V21Z" stroke="#C8102E" stroke-linecap="round" stroke-linejoin="round"/>
<path fill-rule="evenodd" clip-rule="evenodd" d="M1 24H24V21H1V24Z" stroke="#C8102E" stroke-linecap="round" stroke-linejoin="round"/>
<path fill-rule="evenodd" clip-rule="evenodd" d="M4 19H21V9H4V19Z" stroke="#C8102E" stroke-linecap="round" stroke-linejoin="round"/>
<path d="M7 12H18" stroke="#C8102E" stroke-linecap="round" stroke-linejoin="round"/>
<path fill-rule="evenodd" clip-rule="evenodd" d="M15 6C15 6.553 15.446 7 16 7C16.552 7 17 6.553 17 6C17 5.447 16.552 5 16 5C15.446 5 15 5.447 15 6V6Z" stroke="#C8102E" stroke-linecap="round" stroke-linejoin="round"/>
<path fill-rule="evenodd" clip-rule="evenodd" d="M19 6C19 6.553 19.446 7 20 7C20.552 7 21 6.553 21 6C21 5.447 20.552 5 20 5C19.446 5 19 5.447 19 6V6Z" stroke="#C8102E" stroke-linecap="round" stroke-linejoin="round"/>
<path fill-rule="evenodd" clip-rule="evenodd" d="M4 7H13V5H4V7Z" stroke="#C8102E" stroke-linecap="round" stroke-linejoin="round"/>
<path fill-rule="evenodd" clip-rule="evenodd" d="M1 3H24V1H1V3Z" stroke="#C8102E" stroke-linecap="round" stroke-linejoin="round"/>
</svg>
