<svg width="25" height="24" viewBox="0 0 25 24" fill="none" xmlns="http://www.w3.org/2000/svg">
<path fill-rule="evenodd" clip-rule="evenodd" d="M1 22H5V14H1V22Z" stroke="#C8102E" stroke-linecap="round" stroke-linejoin="round"/>
<path d="M5.00049 20.5625C15.5005 24.0625 12.0005 24.0625 24.0005 18.0625C22.9375 16.9995 22.0985 16.7495 21.0005 17.0625L16.6845 18.4295" stroke="#C8102E" stroke-linecap="round" stroke-linejoin="round"/>
<path d="M5.00049 15H8.00049C10.3535 15 12.0005 17 12.5005 17H16.0005C17.0005 17 17.0005 19 16.0005 19H10.5005" stroke="#C8102E" stroke-linecap="round" stroke-linejoin="round"/>
<path fill-rule="evenodd" clip-rule="evenodd" d="M21.5005 9.5C21.5005 12.063 19.5645 14 17.0005 14C14.4365 14 12.5005 12.063 12.5005 9.5C12.5005 6.937 17.0005 1 17.0005 1C17.0005 1 21.5005 6.937 21.5005 9.5V9.5Z" stroke="#C8102E" stroke-linecap="round" stroke-linejoin="round"/>
<path d="M17.0005 12C15.7115 12 14.6675 10.955 14.6675 9.66699" stroke="#C8102E" stroke-linecap="round" stroke-linejoin="round"/>
</svg>
