<svg width="24" height="21" viewBox="0 0 24 21" fill="none" xmlns="http://www.w3.org/2000/svg">
<path fill-rule="evenodd" clip-rule="evenodd" d="M23.4396 4.272C23.4396 6.081 20.1666 10 20.1666 10C20.1666 10 16.8926 6.081 16.8926 4.272C16.8926 2.465 18.3576 1 20.1666 1C21.9726 1 23.4396 2.465 23.4396 4.272V4.272Z" stroke="#C8102E" stroke-linecap="round" stroke-linejoin="round"/>
<path fill-rule="evenodd" clip-rule="evenodd" d="M21.3929 4.27204C21.3929 4.95104 20.8439 5.50004 20.1659 5.50004C19.4889 5.50004 18.9399 4.95104 18.9399 4.27204C18.9399 3.59404 19.4889 3.04504 20.1659 3.04504C20.8439 3.04504 21.3929 3.59404 21.3929 4.27204V4.27204Z" stroke="#C8102E" stroke-linecap="round" stroke-linejoin="round"/>
<path fill-rule="evenodd" clip-rule="evenodd" d="M9.26097 11.8183C8.89297 14.0183 5.16998 19.9993 5.16998 19.9993C5.16998 19.9993 1.54798 14.3793 1.07998 11.8183C0.615975 9.27727 2.19598 6.99927 5.16998 6.99927C8.14598 6.99927 9.69597 9.23127 9.26097 11.8183V11.8183Z" stroke="#C8102E" stroke-linecap="round" stroke-linejoin="round"/>
<path fill-rule="evenodd" clip-rule="evenodd" d="M7.04336 10.9067C7.04336 11.9417 6.20536 12.7807 5.17036 12.7807C4.13636 12.7807 3.29736 11.9417 3.29736 10.9067C3.29736 9.87267 4.13636 9.03467 5.17036 9.03467C6.20536 9.03467 7.04336 9.87267 7.04336 10.9067V10.9067Z" stroke="#C8102E" stroke-linecap="round" stroke-linejoin="round"/>
<path d="M8.16626 18.9995L19.6663 11.4995" stroke="#C8102E" stroke-linecap="round" stroke-linejoin="round"/>
</svg>
