<?xml version="1.0" encoding="utf-8"?>
<!-- Generator: Adobe Illustrator 24.0.0, SVG Export Plug-In . SVG Version: 6.00 Build 0)  -->
<svg version="1.1" id="Layer_1" xmlns="http://www.w3.org/2000/svg" xmlns:xlink="http://www.w3.org/1999/xlink" x="0px" y="0px"
	 viewBox="0 0 567.7 103.9" style="enable-background:new 0 0 567.7 103.9;" xml:space="preserve">
<style type="text/css">
	.st0{fill-rule:evenodd;clip-rule:evenodd;fill:#ED1C24;}
</style>
<g>
	<path d="M450.5,88.3h4.9c6-1.2,11.5-4.1,17.3-11.1c0-0.3-0.1-0.6-0.1-0.9V32.5c0-1.7-1.3-2.9-2.9-2.9h-19.1c-1.9,0-2.9,2.4-1.7,3.8
		c1.8,2,3.3,4.7,3.3,8.3v34.7c0,3.5-1.7,6.2-3.4,8.3C447.5,85.9,448.6,88.3,450.5,88.3z"/>
	<path d="M474.7,15.5c0-6.2-5.5-10.4-13.3-10.4c-7.9,0-13.4,4.1-13.4,10.4c0,6.1,5.5,10.4,13.4,10.4
		C469.2,25.9,474.7,21.7,474.7,15.5z"/>
	<path d="M562.2,68.8c-4,0-6.7,7.8-14.7,7.8c-7,0-11.9-6.1-13.6-13c3.4,0.5,6.6,0.7,9.4,0.7c17.5,0,24.4-8.5,24.4-17.2
		c0-9.3-9.8-19-25.7-19c-17.9,0-30.4,12.1-30.4,30.1s11.8,30.1,31.4,30.1c16,0,23-8.5,23-14.6C565.9,70.8,564.3,68.8,562.2,68.8z
		 M531.5,50.6c0-7.1,2.8-12,7.7-12c3.7,0,6.7,3.2,7.4,7c0.8,4.5-1.8,9.4-10.6,9.4c-1.3,0-2.7-0.1-4.1-0.4
		C531.6,53.2,531.5,51.9,531.5,50.6z"/>
	<path d="M510.7,29.2h-5.9v-7c0-5.8,1.3-9.3,4.4-9.3c5.7,0,3.5,13.2,12.1,13.2c4.5,0,6.8-3.8,6.8-7.8c0-6-5.4-13.2-20.5-13.2
		c-12.9,0-23.2,5.1-23.2,17.3c0,6.2,0,6.7,0,6.7h-3.2c-1.7,0-2.9,1.3-2.9,2.9v2.2c0,1.5,1.3,2.9,2.9,2.9h3.2v30.7
		c1.6,0.3,3.1,1.1,4.1,2.3c1.3,1.6,1.9,3.6,1.5,5.8l-1.7,12.1h18.2c2,0,2.9-2.4,1.7-3.8c-1.8-2-3.4-4.7-3.4-8.3V37.4h5.9
		c1.7,0,3.1-1.4,3.1-2.9v-2.2C513.7,30.5,512.3,29.2,510.7,29.2z"/>
	<path d="M483.1,72c-1.1,0-2.2,0.5-3,1.7C468.6,91.4,458,93,445.1,93c-4.3,0-7-2.8-7-8V16.3c0-4.9,2.2-8.6,4.6-11.2
		c1.8-1.9,0.4-5-2.2-5h-22.3c-19.3,0-34.2,11.6-41.9,25.3c2.7,0.9,4.7,3.5,4.7,6.5v2.3c0,3.7-3.1,6.8-6.8,6.8h-3.3
		c-0.2,1.7-0.4,3.4-0.4,5.1c0,13.3,7.5,24.3,23.1,24.3c1.2,0,2.4,0,3.6-0.1c2.5-0.3,3.8-3,2.4-5c-3.3-4.6-5.2-12.9-5.2-21.6
		c0-13.3,4.6-27.8,16.3-32.2v75.9c0,4.7-2.2,8.4-4.6,11.1c-1.8,2.1-0.3,5.2,2.2,5.2h70.1c2.2,0,4.1-1.6,4.4-3.8l3.4-24
		C486.4,73.4,484.9,72,483.1,72z"/>
	<path d="M275.3,0.5h-32.2c-2.7,0-4,3.1-2.2,5c2.4,2.7,4.6,6.4,4.6,11.2v25.6c-2.2-2.2-5.6-4-11.2-4s-10.8,1.3-16.3,3V16.8
		c0-4.9,2.2-8.6,4.6-11.2c1.8-1.9,0.3-5-2.4-5h-32.2c-2.7,0-4,3.1-2.2,5c2.4,2.7,4.6,6.4,4.6,11.2v31.8c-5.2,0.7-10.8,1.3-17.3,1.3
		c-11.5,0-23.2-3.6-29.1-9.9c-0.7-0.7-1.5-1-2.3-1c-1.5,0-3,1.1-3.2,2.9c-0.1,1.2-0.3,2.5-0.3,4c0,10.7,5.5,23.5,22.6,23.5
		c9.6,0,19.8-2.7,29.6-6.1v24.3c0,4.7-2.2,8.4-4.6,11.1c-1.8,2.1-0.4,5.2,2.2,5.2h32.2c2.7,0,4.1-3.1,2.4-5.2
		c-2.4-2.7-4.6-6.4-4.6-11.1V52.7c6.2-2.2,11.5-3.8,15.8-3.8c9.8,0,11.7,7.8,11.7,13.9v24.9c0,4.7-2.2,8.4-4.6,11.1
		c-1.8,2.1-0.4,5.2,2.2,5.2h32.2c2.7,0,4.1-3.1,2.4-5.2c-2.4-2.7-4.6-6.4-4.6-11.1v-58c-0.3-1-0.3-2,0-3.1v-9.8
		c0-4.9,2.2-8.6,4.6-11.2C279.5,3.6,278,0.5,275.3,0.5z"/>
	<path d="M337.3,37.7c-0.3-0.4-0.5-0.9-0.6-1.4c-0.7-1.9-0.4-3.9,0.5-5.5c-0.4-1.2-1.5-2-2.8-2h-19.4c-1.9,0-3,2.4-1.7,3.8
		c1.8,2,3.4,4.8,3.4,8.4v27.1c0,5.9-2.6,9.2-7.6,9.2c-4.8,0-7.6-3.5-7.6-9.2V31.8c0-1.7-1.3-3-3-3H279c-1.9,0-3,2.4-1.7,3.8
		c1.8,2,3.4,4.8,3.4,8.4v29.6c0,15,11.9,18.6,19.3,18.6c6.1,0,12.2-1.7,16.7-5.6v1.9c0,1.6,1.4,3,3,3h19.4c2,0,3-2.4,1.7-3.8
		c-1.8-2-3.5-4.8-3.5-8.4V37.7z"/>
	<path d="M377.1,34.1v-2.3c0-1.7-1.4-3-3-3h-7.8V18.1c0-1.8-1.5-3-3.1-3c-0.6,0-1.3,0.2-1.8,0.6l-20.2,16.1c-2.2,1.7-1,5.3,1.9,5.3
		h2.4v34.2c0,7.6,4.3,18,15.8,18c8.3,0,13.1-4.7,14.8-10.6c0.5-1.6-0.7-3-2.1-3c-0.3,0-0.6,0.1-1,0.2c-0.8,0.4-1.6,0.6-2.3,0.6
		c-2.4,0-4.4-1.9-4.4-5.2V37.1h7.8C375.7,37.1,377.1,35.6,377.1,34.1z"/>
</g>
<g>
	<g>
		<path d="M26.8,67.3c0,1.3,1.6,2.8,1.6,3.5c0,0.9-0.8,0.9-0.8,0.9s-8.8,0-11.7,0c-0.3,0-0.8-0.3-0.8-0.8c0-0.9,1.6-1.2,1.6-3.8
			c0-1.8,0-25.4,0-25.4c0-1.8-1.4-2.3-1.4-3.2c0-0.7,0.3-1.1,1-1.1c4.3,0,17,0,17,0c7.8,0,9.7,6.4,9.7,10.9c0,8-5.6,11.9-10.3,11.9
			c-2.5,0-5.1-1.3-5.1-2.7c0-0.1,0.1-0.4,0.4-0.6c0.8-0.4,5.1-1.7,5-8.5c-0.1-5.4-2-7.9-3.9-7.9c-1.6,0-2.2,0.9-2.2,3.3
			C26.9,46.2,26.8,64.2,26.8,67.3z"/>
		<ellipse cx="48.4" cy="38.3" rx="4.9" ry="3.9"/>
		<path d="M79.3,65.4h-3.9c-1,0-1.6-1.1-1-1.9l10.9-16.6c0.1-0.2,0-0.5-0.3-0.5c-2.7,0.1-3.8,0.4-4.7,1.2c-1.8,1.4-2.2,4.4-3.4,4.4
			c-0.7,0-1-0.4-1-1.2c0-0.7,0-5,0-6c0-1,0.3-1.5,1.2-1.5s17.4,0,17.4,0c0.8,0,1.4,0.6,1.4,1.4c0,0.7-1.9,3.4-2.2,3.9
			c-0.5,0.8-9.2,14.2-9.2,14.2c6.2,0,8,4.2,12.9,4.2c2.2,0,2.2-0.6,3.4-0.6c0.5,0,0.8,0.3,0.8,0.8c0,0.9-3.2,4.7-7.7,4.7
			C88.6,71.8,85.9,65.4,79.3,65.4z"/>
		<path d="M79.9,66.3c-1.1,0-1.2,0.6-3.4,0.6c-4.9,0-6.7-4.2-12.9-4.2c0,0,8.7-13.5,9.2-14.2c0.3-0.5,2.2-3.2,2.2-3.9
			c0-0.8-0.6-1.4-1.4-1.4c0,0-16.5,0-17.4,0c-0.9,0-1.2,0.5-1.2,1.5c0,1,0,5.3,0,6c0,0.8,0.3,1.2,1,1.2c1.2,0,1.6-2.9,3.4-4.4
			c0.9-0.7,2-1.1,4.7-1.2c0.3,0,0.4,0.3,0.3,0.5L53.6,63.3c-0.4-0.4-0.7-1.1-0.7-2.2c0,0,0-15.3,0-16.3c0-1.1-0.4-1.7-1.2-1.7
			c-0.9,0-6.4,0-7,0c-0.6,0-1.4-0.1-1.4,0.7c0,0.9,1.4,1.3,1.4,3.5c0,1.6,0,10.3,0,13.4c0,2.6-1.6,2.2-1.6,3.6c0,0.7,0.8,1,0.8,1
			h9.7c0,0,0.2,0,0.4-0.1c0.1,0.1,0.3,0.1,0.5,0.1h3.9c6.6,0,9.3,6.4,14.6,6.4c4.5,0,7.7-3.8,7.7-4.7C80.8,66.6,80.4,66.3,79.9,66.3
			z"/>
		<path d="M59.2,73.4c0-1.3,1.6-2.8,1.6-3.5c0-1-0.8-0.9-0.8-0.9s-8.8,0-11.7,0c-0.3,0-0.8,0.3-0.8,0.9c0,0.9,1.6,1.2,1.6,3.8
			c0,0,0,4.7,0,10c-0.8-0.5-1.9-1-3.3-1c-0.7,0-1.7,0.2-3,0.5c0-5.3,0-10,0-10c0-1.6,1.4-2.4,1.4-3.2c0-1.2-1.3-1.1-1.3-1.1
			s-7.8,0-10.4,0c-0.7,0-1.1,0.3-1.1,0.9c0,1.1,1.4,1.1,1.4,3.4c0,1.1,0,6.6,0,12.3c-1.7,0.3-3.4,0.5-5,0.5c-6.9,0-8.5-3.3-9.4-3.3
			c-1.7,0-1.8,9.3,6.3,9.3c2.3,0,5.2-0.8,8.1-1.8c0,4.8,0,8.7,0,8.7c0,1.3-1.6,2.8-1.6,3.5c0,1,0.8,0.9,0.8,0.9s8.8,0,11.7,0
			c0.3,0,0.8-0.3,0.8-0.9c0-0.9-1.6-1.2-1.6-3.8c0-0.8,0-6.3,0-11.9c1.1-0.3,2.1-0.5,3-0.5c2.5,0,3.2,1.6,3.3,2.6
			c0,4.9,0,9.3,0,10.3c0,2.3-1.4,2.3-1.4,3.4c0,0.6,0.5,0.9,1.1,0.9c2.6,0,10.4,0,10.4,0s1.3,0,1.3-1.1c0-0.7-1.4-1.5-1.4-3.2
			L59.2,73.4z"/>
		<path d="M61.8,85.1c0-2.3-1.1-2.3-1.1-3.1c0-0.5,0.4-0.9,0.9-0.9c1.2,0,4.2,0,5.4,0c1.2,0,3,0,3,1.6c0,1.6,0,12.4,0,13.7
			s0.5,2.9,2.1,2.9s3-0.9,3-2.9c0-1.9,0-9,0-10.5c0-3.1-1.3-2.9-1.3-4c0-0.5,0.3-0.9,0.8-0.9c1.3,0,5.5,0,6.4,0c1.6,0,2.2,0.5,2.2,1
			c0,1,0,15.7,0,16.9c0,2.2,1.4,2.6,1.4,3.6c0,0.6-0.7,0.7-0.7,0.7s-5.1,0-6.5,0c-2,0-1.6-1.9-1.6-1.9s-2.5,2.5-7,2.5
			c-5.5,0-7.2-3.7-7.2-5.7C61.8,95.7,61.8,85.1,61.8,85.1z"/>
		<path d="M114.9,58.9c0-3.9,0-10.4,0-10.4c0-3.9-4.3-5.7-9.3-5.7c-4.9,0-9.9,1.4-9.9,5.1c0,1.7,1.4,2.9,2.9,2.9
			c1.7,0,2.9-1.5,3.2-2.6c0.5-1.8,1.8-2.3,2.7-2.3c1.2,0,2.5,1,2.5,2.5c0,2.5-2.7,3.1-6.2,3.9c-5.1,1.2-7,3.5-7,7.2
			c0,3.4,3,6.3,7.5,6.3c3,0,4.9-1.3,5.7-2c0.2-0.2,0.5-0.2,0.7,0c0.6,0.7,2,1.9,4.5,1.9c3.6,0,4.9-2.2,4.9-3
			C117.1,61.4,114.9,63.3,114.9,58.9z M107.2,58.7c0,1.5-1.2,2.5-2.6,2.5c-1,0-2.5-0.9-2.5-2.5c0-2.9,3.7-4.7,4.2-4.9
			c0.6-0.2,0.9-0.4,0.9,0C107.2,54.4,107.2,57.2,107.2,58.7z"/>
		<path d="M94.1,84c1.1,0,2.7,0,3.1,0c0.7,0,1-0.7,1-1.4c0-0.7-0.3-1.5-1-1.5c-0.3,0-2,0-3.1,0c0-2.1,0-4.2,0-4.8c0-1-0.9-1-1.6-0.5
			c-0.9,0.7-6.7,5.1-7.7,5.7c-0.9,0.7-1.2,2.5,1.3,2.5c0,2.8,0,12.1,0,13.4c0,3.8,1.9,6.3,5.5,6.3c2.8,0,4.4-1.1,5.5-2.9
			c0.7-1.2,0.6-2.2-0.1-2.2c-0.6,0-0.6,0.3-1.3,0.3c-1,0-1.5-0.9-1.5-1.9c0-1,0-10.6,0-11.9C94.1,85,94.1,84.5,94.1,84z"/>
	</g>
	<g>
		<path d="M97.8,101.7c0-0.9,0.7-1.7,1.7-1.7c0.9,0,1.7,0.7,1.7,1.7c0,0.9-0.7,1.7-1.7,1.7C98.5,103.4,97.8,102.6,97.8,101.7z
			 M100.8,101.7c0-0.7-0.6-1.3-1.3-1.3c-0.7,0-1.3,0.6-1.3,1.3c0,0.7,0.6,1.3,1.3,1.3C100.2,103.1,100.8,102.5,100.8,101.7z
			 M98.8,100.9h0.8c0.4,0,0.6,0.2,0.6,0.5c0,0.3-0.2,0.5-0.5,0.5l0.4,0.6h-0.4l-0.5-0.8h0.2c0.2,0,0.4,0,0.4-0.3
			c0-0.2-0.2-0.2-0.4-0.2h-0.3v1.3h-0.3V100.9z"/>
	</g>
	<polygon class="st0" points="129.1,31.8 129.1,30.2 96.5,16.1 90.1,0.5 39,0.5 32.6,16.1 0,30.2 0,31.8 	"/>
</g>
</svg>
